Coordinates
version=1
nRows=8
nColumns=40
inDegrees=yes

Units are S.I. units (second, meters, Newtons, ...)
If the header above contains a line with 'inDegrees', this indicates whether rotational values are in degrees (yes) or radians (no).

endheader
time	pelvis_tilt	pelvis_list	pelvis_rotation	pelvis_tx	pelvis_ty	pelvis_tz	hip_flexion_r	hip_adduction_r	hip_rotation_r	knee_angle_r	knee_angle_r_beta	ankle_angle_r	subtalar_angle_r	mtp_angle_r	hip_flexion_l	hip_adduction_l	hip_rotation_l	knee_angle_l	knee_angle_l_beta	ankle_angle_l	subtalar_angle_l	mtp_angle_l	lumbar_extension	lumbar_bending	lumbar_rotation	arm_flex_r	arm_add_r	arm_rot_r	elbow_flex_r	pro_sup_r	wrist_flex_r	wrist_dev_r	arm_flex_l	arm_add_l	arm_rot_l	elbow_flex_l	pro_sup_l	wrist_flex_l	wrist_dev_l
      0.62000000	     -2.18998534	     -2.51867141	     -8.95796736	      0.12247282	      0.91489342	      0.28643894	    -13.67996429	      2.85421214	    -11.14656766	      5.75443026	      0.10043375	      4.72515802	      9.15460306	      0.00000000	     25.41614833	    -12.02141656	    -29.73025672	     12.03010356	      0.20996492	     -3.34782212	     12.27228180	      0.00000000	     10.13285840	      3.36680554	      7.64594342	     43.76484502	    -16.42498625	     43.76484502	     75.29529824	     44.98414196	      0.00000000	      0.00000000	     43.76484502	    -16.42498625	     43.76484502	     75.29529824	     44.98414196	      0.00000000	      0.00000000
      0.62500000	     -2.50120776	     -2.87114852	     -8.92459977	      0.12859634	      0.91315699	      0.28561467	    -13.76921332	      3.15149928	    -11.16680803	      5.86205631	      0.10231218	      4.79666297	      9.27244823	      0.00000000	     25.99013560	    -12.24909648	    -29.60352849	     10.98787455	      0.19177459	     -3.44641924	     13.42314005	      0.00000000	     10.30641752	      3.72011223	      7.41346468	     43.76555302	    -16.42363615	     43.76555302	     75.29475060	     44.98422356	      0.00000000	      0.00000000	     43.76555302	    -16.42363615	     43.76555302	     75.29475060	     44.98422356	      0.00000000	      0.00000000
      0.63000000	     -2.76591904	     -3.16326079	     -8.89337893	      0.13481990	      0.91150021	      0.28475230	    -13.89920896	      3.36469363	    -11.21108376	      5.98351848	      0.10443210	      4.84318230	      9.39178274	      0.00000000	     26.49471731	    -12.41271674	    -29.52705979	     10.00967376	      0.17470176	     -3.55121319	     14.57916188	      0.00000000	     10.45442712	      4.00201411	      7.17936907	     43.76621912	    -16.42236642	     43.76621912	     75.29423602	     44.98429998	      0.00000000	      0.00000000	     43.76621912	    -16.42236642	     43.76621912	     75.29423602	     44.98429998	      0.00000000	      0.00000000
      0.63500000	     -2.99366726	     -3.40789118	     -8.86780585	      0.14114979	      0.90991957	      0.28382974	    -14.05296020	      3.50790680	    -11.25972595	      6.13130009	      0.10701137	      4.87009277	      9.53514592	      0.00000000	     26.93831045	    -12.52048382	    -29.47740933	      9.09707900	      0.15877398	     -3.66581212	     15.72057588	      0.00000000	     10.57886880	      4.21607661	      6.93366462	     43.76693642	    -16.42099959	     43.76693642	     75.29368258	     44.98438191	      0.00000000	      0.00000000	     43.76693642	    -16.42099959	     43.76693642	     75.29368258	     44.98438191	      0.00000000	      0.00000000
      0.64000000	     -3.17542320	     -3.59928580	     -8.84921538	      0.14762062	      0.90842513	      0.28277303	    -14.23981078	      3.56068239	    -11.32907277	      6.30882990	      0.11010985	      4.89414480	      9.70922459	      0.00000000	     27.30701448	    -12.56872326	    -29.48856032	      8.25994751	      0.14416328	     -3.77932786	     16.79415196	      0.00000000	     10.70104242	      4.38610362	      6.64586470	     43.76781246	    -16.41933097	     43.76781246	     75.29300762	     44.98448146	      0.00000000	      0.00000000	     43.76781246	    -16.41933097	     43.76781246	     75.29300762	     44.98448146	      0.00000000	      0.00000000
      0.64500000	     -3.35101781	     -3.77527355	     -8.86538052	      0.15414970	      0.90695648	      0.28194129	    -14.43368346	      3.60676835	    -11.36546890	      6.48007917	      0.11309872	      4.90326202	      9.86278739	      0.00000000	     27.64893751	    -12.63837844	    -29.42741848	      7.54294343	      0.13164920	     -3.79655898	     17.66119817	      0.00000000	     10.79931296	      4.48900490	      6.42436511	     43.76844645	    -16.41812388	     43.76844645	     75.29251984	     44.98455315	      0.00000000	      0.00000000	     43.76844645	    -16.41812388	     43.76844645	     75.29251984	     44.98455315	      0.00000000	      0.00000000
      0.65000000	     -3.48385858	     -3.88999141	     -8.86828490	      0.16079048	      0.90559451	      0.28091752	    -14.64614638	      3.55659463	    -11.42974994	      6.69323201	      0.11681894	      4.88957233	     10.03891083	      0.00000000	     27.92630254	    -12.62269280	    -29.41455538	      6.89968198	      0.12042217	     -3.88334878	     18.46524996	      0.00000000	     10.87394321	      4.53483475	      6.15657264	     43.76927438	    -16.41654814	     43.76927438	     75.29188366	     44.98464633	      0.00000000	      0.00000000	     43.76927438	    -16.41654814	     43.76927438	     75.29188366	     44.98464633	      0.00000000	      0.00000000
      0.65500000	     -3.49831322	     -3.81694974	     -8.89009177	      0.16767545	      0.90440012	      0.27989304	    -14.90475658	      3.24285985	    -11.71509479	      7.05321721	      0.12310186	      5.02793153	     10.52707654	      0.00000000	     28.00360880	    -12.40515303	    -29.57230796	      6.26915068	      0.10941732	     -4.01621343	     19.22573043	      0.00000000	     10.91570405	      4.15554641	      5.56169677	     43.77233046	    -16.41073754	     43.77233046	     75.28954362	     44.98498594	      0.00000000	      0.00000000	     43.77233046	    -16.41073754	     43.77233046	     75.28954362	     44.98498594	      0.00000000	      0.00000000
